<mxfile host="app.diagrams.net" modified="2023-04-10T19:55:00.771Z" agent="Mozilla/5.0 (Macintosh; Intel Mac OS X 10_15_7) AppleWebKit/537.36 (KHTML, like Gecko) Chrome/112.0.0.0 Safari/537.36" version="21.1.5" etag="MVu9hMXUzVX5cO1VnOf5" type="github">
  <diagram name="Page-1" id="ryq8lNGXdTXohCt5N-VI">
    <mxGraphModel>
      <root>
        <mxCell id="0" />
        <mxCell id="1" parent="0" />
      </root>
    </mxGraphModel>
  </diagram>
</mxfile>
